<?xml version="1.0" encoding="UTF-8"?>
<svg id="svg2" xmlns="http://www.w3.org/2000/svg" viewBox="0 0 535 496.14">
  <defs>
    <style>
      .cls-1 {
        fill: #d2d2d2;
      }
    </style>
  </defs>
  <path class="cls-1" d="M231.45,496.14s-28.35-102.79-56.92-122.1c-28.57-19.31-57.79,7.92-84.58-10.51-18.75-12.9-2.35-46.11-9.75-64.89-4.51-11.44-2.11-17.05,2.7-17.93s10.06-.44,12.68,7.43,3.94,12.68,3.94,12.68c0,0-1.35-19.62-.24-30.43l3.91-1.17s7.27,16.08,12.67,20.92c5.4,4.85,25.6-7.61,27.56-16.92l88.04,8.33,17.28,37s5.97-2.75,9.18-7.35,7.81-14.23,13.32-14.23,5.51,17.91-3.21,32.14-31.8,25.25-36.56,50.05,34.89,116.97,34.89,116.97h-34.89Z"/>
</svg>