<?xml version="1.0" encoding="UTF-8"?>
<svg id="svg2" xmlns="http://www.w3.org/2000/svg" viewBox="0 0 535 496.14">
  <defs>
    <style>
      .cls-1 {
        fill: #d2d2d2;
      }
    </style>
  </defs>
  <path id="_패스_" data-name="&amp;lt;패스&amp;gt;" class="cls-1" d="M231.45,496.14s-27.03-111.85-55.6-131.15c-28.57-19.31-82.63,0-93.44-24.71-10.81-24.71,3.42-50.99,0-62.8-3.42-11.81-2.11-17.05,2.7-17.93s10.06-.44,12.68,7.43,3.94,12.68,3.94,12.68c0,0-1.35-19.62-.24-30.43l3.91-1.17s7.27,16.08,12.67,20.92,20.68,11,22.64,1.68l90.74,10.89,17.28,37s5.97-2.75,9.18-7.35,7.81-14.23,13.32-14.23,5.51,17.91-3.21,32.14-31.8,25.25-36.56,50.05c-4.76,24.79,34.89,116.97,34.89,116.97h-34.89Z"/>
</svg>