<?xml version="1.0" encoding="UTF-8"?>
<svg id="svg2" xmlns="http://www.w3.org/2000/svg" viewBox="0 0 535 496.14">
  <defs>
    <style>
      .cls-1 {
        fill: #d2d2d2;
      }
    </style>
  </defs>
  <path class="cls-1" d="M231.45,496.14s-24.58-105.52-52.18-117.03c-24.95-10.4-46.94,20.27-77.79-.93-20.3-13.95-4.36-44.7-18.12-69.78-5.91-10.78-2.11-17.05,2.7-17.93s10.06-.44,12.68,7.43,3.94,12.68,3.94,12.68c0,0-1.35-19.62-.24-30.43l3.91-1.17s7.27,16.08,12.67,20.92c5.4,4.85,29.61-20.86,31.57-30.18l80.85,11.82,17.28,37s5.97-2.75,9.18-7.35c3.21-4.59,7.81-14.23,13.32-14.23s5.51,17.91-3.21,32.14c-8.72,14.23-31.8,25.25-36.56,50.05-4.76,24.79,34.89,116.97,34.89,116.97h-34.89Z"/>
</svg>