<?xml version="1.0" encoding="UTF-8"?>
<svg id="svg2" xmlns="http://www.w3.org/2000/svg" viewBox="0 0 535 496.14">
  <defs>
    <style>
      .cls-1 {
        fill: #d2d2d2;
      }
    </style>
  </defs>
  <path id="base_fill_2" class="cls-1" d="M55.58,157.49c16.06,4.46,12.49,17.84,11.6,27.65-.89,9.81-1.78,19.62,3.57,23.19,5.35,3.57,12.49-1.78,15.16-11.6,0,0,5.52,30.13,9.54,36.3h3.49s2.95-17.45,6.17-21.21c3.22-3.76,15.57.54,22.82-6.98,7.25-7.52,4.3-11.81,9.13-16.91,4.83-5.1,16.24-11.04,39.34-13.07s73.75,4.46,80.63-7.29c6.89-11.75-3.65-21.48-16.21-19.45s-53.08,8.91-83.06,6.48-60.78-10.13-76.99-9.32c-16.21.81-25.46,3.08-33.07,10.69"/>
  <path id="base_filll_1" class="cls-1" d="M341.63,496.14s-20.18-60.46-29.34-97.08c-9.16-36.62,1.08-106.1,2.15-124.95,1.08-18.85,14.54-70.55,2.15-95.87-12.39-25.31-39.32-51.16-49.01-61.72-9.69-10.56-23.7-19.06-32.11-29.46-8.41-10.4-2.29-34.34-14.53-48.87-12.24-14.53-81.44-13.76-91.38-10.71-9.94,3.06-23.32,9.18-60.79,44.73-37.47,35.56-49.05,76.23-49.05,76.23l-5.19-5.23C1.16,127.17,67.17,62.94,74.31,47.78c7.14-15.16,6.24-27.65,5.35-47.78h455.7c-2.28,178.27-79.27,209.32-83.01,316.8-2.75,79.29,70.23,179.35,70.23,179.35h-180.95Z"/>
  <path id="wall_" class="cls-1" d="M314.74,496.14s-21.24-91.73-21.61-102.22-1.87-18.35-4.87-17.98-3.74,20.22,1.87,44.94c5.62,24.72,9.23,75.25,9.23,75.25"/>
</svg>