<?xml version="1.0" encoding="UTF-8"?>
<svg id="_레이어_3" data-name="레이어 3" xmlns="http://www.w3.org/2000/svg" viewBox="0 0 1023 1023">
  <defs>
    <style>
      .cls-1 {
        fill: #2e3aff;
      }

      .cls-2 {
        fill: #f2f4f0;
      }
    </style>
  </defs>
  <rect class="cls-1" width="1023" height="1023"/>
  <path class="cls-2" d="M701.12,684.84l-.24.26v-409.44l.03.02v-91.88l50.23-43.52h-95.71v-.8s-237.28,0-237.28,0c-66.7.4-126.92,39.07-164.87,90.88-37.22,50.81-46.99,114.05-22.13,170.88,26.24,59.98,88.69,94.98,152.73,81.18,36.38-7.84,67.87-34.68,73.01-72.2,3.3-24.08,2.35-93.41,1.96-104.49l-98.44,2.27,31.45,36.38-.04,55.45c.13,12.26-9.87,18.63-21.64,19.8-31.73,3.16-60.86-17.27-73.14-47.73-15.86-39.36-4.36-83.38,26.26-113.14,24.96-24.27,57.68-40.04,93.39-40.36l81.57-.74,21.8-.02c.31,167.25.74,547.42-1.55,580.84-2.63,38.41-44.14,60.51-80.42,49.94-38.92-11.34-72.88-33.88-72.88-33.88v44.94s91.99,73.03,178.62,15.72c42.57-28.16,37.55-81.9,37.55-116.31V217.58l46.54-.05.06,15.2-.36,491.29h137.85l13.49-39.17h-77.84Z"/>
</svg>